# xmcd CD database file
#
# Track frame offsets:
#	150
#	15525
#	29498
#	45582
#	58366
#	70753
#	90139
#	105547
#	118191
#	128462
#	148288
#	160791
#	176148
#	187597
#
# Disc length: 2756 seconds
#
# Revision: 1
# Processed by: cddbd v1.5.2PL0 Copyright (c) Steve Scherf et al.
# Submitted via: CDex 1.50Beta7
#
DISCID=b50ac20e
DTITLE=vanderley e valtecy - meu sonho
DYEAR=1900
DGENRE=caipira
TTITLE0=eu canto o que o povo pede 
TTITLE1=coração insatisfeito 
TTITLE2=meu sonho 
TTITLE3=fechado para balanço 
TTITLE4=coração dengoso 
TTITLE5=rei caipira 
TTITLE6=fujindo da solidão 
TTITLE7=não posso viver sem ela 
TTITLE8=não é mole não 
TTITLE9=novo amor 
TTITLE10=recaída 
TTITLE11=meu recanto favorito 
TTITLE12=chuva de mulher 
TTITLE13=velho solitário 
EXTD=
EXTT0=
EXTT1=
EXTT2=
EXTT3=
EXTT4=
EXTT5=
EXTT6=
EXTT7=
EXTT8=
EXTT9=
EXTT10=
EXTT11=
EXTT12=
EXTT13=
PLAYORDER=
